<svg xmlns="http://www.w3.org/2000/svg" width="607.727" height="679.571" viewBox="0 0 607.727 679.571">
  <defs>
    <style>
      .cls-1 {
        fill: #fff;
      }
    </style>
  </defs>
  <g id="Group_330" data-name="Group 330" transform="translate(-67.075)">
    <g id="Group_60" data-name="Group 60" transform="translate(397.334)">
      <path id="Path_121" data-name="Path 121" class="cls-1" d="M940.178-240.524c-10.072,36.338-14.25,83.234-15.918,109.912,101.241-66.535,207.729-82.51,261.711-87.431,7.153-91.18,15.756-156.36,15.756-156.36s-128.357,14.335-234.148,51.77a842.85,842.85,0,0,0-27.4,82.11" transform="translate(-924.26 374.404)"/>
    </g>
    <g id="Group_61" data-name="Group 61" transform="translate(128.116 511.071)">
      <path id="Path_122" data-name="Path 122" class="cls-1" d="M1175.934-316.515c-111.343-9.91-180.043-.057-207.931,3.272-30.834,55.213-52.714,104.274-71.97,151.257,47.135,7.868,203.638,27.792,318.9-31.1,49.93-25.542,85.678-50.7,115.653-82.49-16.28-9.252-83.52-34.612-154.651-40.936" transform="translate(-896.033 320.819)"/>
    </g>
    <g id="Group_62" data-name="Group 62" transform="translate(67.075 51.141)">
      <path id="Path_123" data-name="Path 123" class="cls-1" d="M1045.239-123.61c3.1-48.68,7.813-86.764,11.894-113.441v.009a212.921,212.921,0,0,0-17.1-49.643c-28.346-56.92-78.733-82.356-78.733-82.356S898.856-223.765,890.5-55.979c-7.954,159.488,41.2,289.333,46.134,301.875-.209.792-.361,1.211-.361,1.211l.257.048C957.885,177.9,992.563,89,1046.489,4.765c-2.623-25.2-5.064-68.127-1.25-128.376" transform="translate(-889.632 369.042)"/>
    </g>
    <g id="Group_63" data-name="Group 63" transform="translate(235.462 64.522)">
      <path id="Path_124" data-name="Path 124" class="cls-1" d="M934.527-277.06c-7.344,31.007-17.931,82.672-22.509,139.106-3.721,45.876-4.636,86.354-4.73,113.24,28.518-42.032,61.975-82.443,101.279-118.133a454.6,454.6,0,0,1,45.609-36.252c.295-21.212,1.518-55.3,5.751-94.69,4.712-43.863,14.431-76.549,20.5-93.85-58.13,23.873-106.477,54.555-145.9,90.579" transform="translate(-907.288 367.639)"/>
    </g>
    <g id="Group_64" data-name="Group 64" transform="translate(398.183 195.159)">
      <path id="Path_125" data-name="Path 125" class="cls-1" d="M1160.3-353.942c-56.156,8.86-147.595,31.454-235.95,88.623v.209c88.327-57.177,179.794-79.935,235.95-88.833" transform="translate(-924.349 353.942)"/>
    </g>
    <g id="Group_65" data-name="Group 65" transform="translate(635.04 193.413)">
      <path id="Path_126" data-name="Path 126" class="cls-1" d="M949.183-352.513c3.747-.591,7.381-1.125,10.8-1.612-3.415.487-7.058,1.021-10.8,1.612" transform="translate(-949.183 354.125)"/>
    </g>
    <g id="Group_66" data-name="Group 66" transform="translate(208.756 294.407)">
      <path id="Path_127" data-name="Path 127" class="cls-1" d="M1078.035-343.536c-.324.229-.659.439-.973.668-68.5,48.1-126.469,126.879-172.574,207.681,28.451-4.969,101.127-15.241,187.861-8.822-2.106-11.016-6.408-38.208-10.434-92.439-3.7-49.748-3.947-91.2-3.881-107.088" transform="translate(-904.488 343.536)"/>
    </g>
    <g id="Group_67" data-name="Group 67" transform="translate(645.837 192.068)">
      <path id="Path_128" data-name="Path 128" class="cls-1" d="M950.314-352.921c3.729-.505,7.287-.953,10.587-1.344-3.3.391-6.848.839-10.587,1.344" transform="translate(-950.314 354.266)"/>
    </g>
    <g id="Group_68" data-name="Group 68" transform="translate(634.134 195.025)">
      <path id="Path_129" data-name="Path 129" class="cls-1" d="M949.088-353.822c.313-.048.58-.1.906-.134-.326.038-.593.086-.906.134" transform="translate(-949.088 353.956)"/>
    </g>
    <g id="Group_69" data-name="Group 69" transform="translate(409.648 495.059)">
      <path id="Path_130" data-name="Path 130" class="cls-1" d="M925.589-322.326c8.469.763,16.9,1.488,25.579,2.623-8.649-1.135-17.158-2.012-25.617-2.794l.038.171" transform="translate(-925.551 322.498)"/>
    </g>
    <g id="Group_70" data-name="Group 70" transform="translate(397.798 192.068)">
      <path id="Path_131" data-name="Path 131" class="cls-1" d="M1172.348-352.921c-3.424.468-7.058,1.011-10.8,1.613l-.916.134c-56.158,8.888-147.6,31.655-235.941,88.823-.449,18.227-1.049,61.957,1.736,108.863,3.31,55.891,7.782,89.358,9.738,102.215,8.43.782,16.967,1.669,25.617,2.794,72.1,9.394,124.342,27.85,146.669,36.844,46.3-57.989,66.134-128.052,68.434-216.961,1.105-43.683,3.349-86.354,6.046-125.668-3.3.391-6.857.839-10.586,1.344" transform="translate(-924.308 354.266)"/>
    </g>
  </g>
</svg>
